# xmcd
#
# Track frame offsets:
#	150
#	22457
#	38622
#	56267
#	77302
#	95152
#	112307
#	129082
#	150590
#	170242
#	189985
#	205672
#	223782
#	240940
#
# Disc length: 3472 seconds
#
# Revision: 2
# Processed by: cddbd v1.5.2PL0 Copyright (c) Steve Scherf et al.
# Submitted via: EasyCDDAExtractor 15.3.0.1
#
DISCID=b70d8e0e
DTITLE=Lissette - La Linea De La Vida
DYEAR=2004
DGENRE=Latin
TTITLE0=Hacer El Amor
TTITLE1=Bandida
TTITLE2=Al Diablo La Noche
TTITLE3=Corazon Suicida
TTITLE4=Adagio
TTITLE5=Just A Phase
TTITLE6=La Vida Es Solo Un Juego
TTITLE7=A Gozar La Vida
TTITLE8=Until We Meet Again
TTITLE9=Solo El Amor
TTITLE10=Quedate Conmigo
TTITLE11=Un Lugar
TTITLE12=Preguntas
TTITLE13=Volvernos A Encontrar
EXTD=
EXTT0=
EXTT1=
EXTT2=
EXTT3=
EXTT4=
EXTT5=
EXTT6=
EXTT7=
EXTT8=
EXTT9=
EXTT10=
EXTT11=
EXTT12=
EXTT13=
PLAYORDER=
